<?xml version="1.0" standalone="no"?><!DOCTYPE svg PUBLIC "-//W3C//DTD SVG 1.1//EN" "http://www.w3.org/Graphics/SVG/1.1/DTD/svg11.dtd"><svg t="1753240674304" class="icon" viewBox="0 0 1024 1024" version="1.1" xmlns="http://www.w3.org/2000/svg" p-id="11124" xmlns:xlink="http://www.w3.org/1999/xlink" width="256" height="256"><path d="M854.144 781.824a96 96 0 0 1-21.12-60.16V404.096A308.096 308.096 0 0 0 524.928 96H497.92A305.984 305.984 0 0 0 192 401.984v316.352c0 21.12-6.976 41.6-19.84 58.368l-17.792 23.296h714.496l-14.656-18.176zM497.92 32h27.008a372.096 372.096 0 0 1 372.096 372.096v317.568a32 32 0 0 0 7.04 20.096l48 59.776a38.4 38.4 0 0 1-29.888 62.464H102.4a38.4 38.4 0 0 1-30.464-61.76l49.408-64.448a32 32 0 0 0 6.592-19.456V401.92A369.984 369.984 0 0 1 497.92 32z" fill="#000000" p-id="11125"></path><path d="M320 832h64c0 51.2 55.936 96 128 96s128-44.8 128-96h64c0 90.112-87.36 160-192 160s-192-69.888-192-160z" fill="#000000" p-id="11126"></path></svg>